<svg width="48" height="48" viewBox="0 0 48 48" fill="none" xmlns="http://www.w3.org/2000/svg">
<rect width="48" height="48" rx="4" fill="white"/>
<path d="M23.9993 7.33301C16.6327 7.33301 10.666 8.16634 10.666 13.9997V30.6663C10.666 32.133 11.316 33.4497 12.3327 34.3663V37.333C12.3327 38.2497 13.0827 38.9997 13.9993 38.9997H15.666C16.5827 38.9997 17.3327 38.2497 17.3327 37.333V35.6663H30.666V37.333C30.666 38.2497 31.416 38.9997 32.3327 38.9997H33.9993C34.916 38.9997 35.666 38.2497 35.666 37.333V34.3663C36.6827 33.4497 37.3327 32.133 37.3327 30.6663V13.9997C37.3327 8.16634 31.366 7.33301 23.9993 7.33301ZM33.4327 12.3163H14.566C15.4827 11.433 17.8493 10.6663 23.9993 10.6663C30.1493 10.6663 32.516 11.433 33.4327 12.3163ZM33.9993 15.6497V20.6663H13.9993V15.6497H33.9993ZM33.4327 31.883L32.9493 32.333H15.0493L14.566 31.883C14.3493 31.6997 13.9993 31.283 13.9993 30.6663V23.9997H33.9993V30.6663C33.9993 31.283 33.6493 31.6997 33.4327 31.883Z" fill="#2474E5"/>
<path d="M18.166 30.667C19.5467 30.667 20.666 29.5477 20.666 28.167C20.666 26.7863 19.5467 25.667 18.166 25.667C16.7853 25.667 15.666 26.7863 15.666 28.167C15.666 29.5477 16.7853 30.667 18.166 30.667Z" fill="#2474E5"/>
<path d="M29.834 30.667C31.2147 30.667 32.334 29.5477 32.334 28.167C32.334 26.7863 31.2147 25.667 29.834 25.667C28.4533 25.667 27.334 26.7863 27.334 28.167C27.334 29.5477 28.4533 30.667 29.834 30.667Z" fill="#2474E5"/>
</svg>
