<svg width="48" height="48" viewBox="0 0 48 48" fill="none" xmlns="http://www.w3.org/2000/svg">
<rect width="48" height="48" rx="4" fill="white"/>
<path d="M41.5 23.9838L37.6182 19.5552L38.1591 13.6981L32.4159 12.3965L29.4091 7.33301L24 9.65047L18.5909 7.33301L15.5841 12.3965L9.84091 13.6822L10.3818 19.5552L6.5 23.9838L10.3818 28.4124L9.84091 34.2854L15.5841 35.587L18.5909 40.6663L24 38.333L29.4091 40.6505L32.4159 35.587L38.1591 34.2854L37.6182 28.4282L41.5 23.9838ZM35.2159 26.333L34.325 27.3648L34.4523 28.714L34.7386 31.8092L31.7159 32.4917L30.3795 32.7933L29.6795 33.9679L28.1045 36.6346L25.2727 35.4124L24 34.8727L22.7432 35.4124L19.9114 36.6346L18.3364 33.9838L17.6364 32.8092L16.3 32.5076L13.2773 31.8251L13.5636 28.714L13.6909 27.3648L12.8 26.333L10.7477 23.9997L12.8 21.6505L13.6909 20.6187L13.5477 19.2536L13.2614 16.1743L16.2841 15.4917L17.6205 15.1902L18.3205 14.0155L19.8955 11.3489L22.7273 12.5711L24 13.1108L25.2568 12.5711L28.0886 11.3489L29.6636 14.0155L30.3636 15.1902L31.7 15.4917L34.7227 16.1743L34.4364 19.2695L34.3091 20.6187L35.2 21.6505L37.2523 23.9838L35.2159 26.333Z" fill="#27AE60"/>
<path d="M20.9615 26.7777L18.4526 24.2637C17.8004 23.6102 16.7414 23.6108 16.09 24.2651C15.4412 24.9169 15.4422 25.9707 16.0924 26.6211L20.2542 30.7844C20.6448 31.1751 21.2782 31.1751 21.6687 30.7844L31.4622 20.9865C32.1125 20.3359 32.1135 19.2818 31.4646 18.63C30.8132 17.9757 29.7543 17.9748 29.1019 18.628L20.9615 26.7777Z" fill="#27AE60"/>
</svg>
