<svg width="48" height="48" viewBox="0 0 48 48" fill="none" xmlns="http://www.w3.org/2000/svg">
<rect width="48" height="48" rx="4" fill="white"/>
<path d="M39.684 23.2997L24.684 8.29967C24.084 7.69967 23.2507 7.33301 22.334 7.33301H10.6673C8.83398 7.33301 7.33398 8.83301 7.33398 10.6663V22.333C7.33398 23.2497 7.70065 24.083 8.31732 24.6997L23.3173 39.6997C23.9173 40.2997 24.7507 40.6663 25.6673 40.6663C26.584 40.6663 27.4173 40.2997 28.0173 39.683L39.684 28.0163C40.3007 27.4163 40.6673 26.583 40.6673 25.6663C40.6673 24.7497 40.284 23.8997 39.684 23.2997ZM25.6673 37.3497L10.6673 22.333V10.6663H22.334V10.6497L37.334 25.6497L25.6673 37.3497Z" fill="#EB5757"/>
<path d="M14.834 17.333C16.2147 17.333 17.334 16.2137 17.334 14.833C17.334 13.4523 16.2147 12.333 14.834 12.333C13.4533 12.333 12.334 13.4523 12.334 14.833C12.334 16.2137 13.4533 17.333 14.834 17.333Z" fill="#EB5757"/>
<path d="M18.834 24.9167C18.834 25.8667 19.2173 26.7 19.834 27.3333L25.6673 33.1667L31.5007 27.3333C32.1173 26.7167 32.5007 25.85 32.5007 24.9167C32.5007 23.0333 30.9673 21.5 29.084 21.5C28.134 21.5 27.284 21.8833 26.6673 22.5L25.6673 23.5L24.6673 22.5167C24.0507 21.8833 23.184 21.5 22.2507 21.5C20.3673 21.5 18.834 23.0333 18.834 24.9167Z" fill="#EB5757"/>
</svg>
