<svg width="48" height="48" viewBox="0 0 48 48" fill="none" xmlns="http://www.w3.org/2000/svg">
<rect width="48" height="48" rx="4" fill="white"/>
<path d="M40.6673 20.667V14.0003C40.6673 12.167 39.1673 10.667 37.334 10.667H10.6673C8.83398 10.667 7.35065 12.167 7.35065 14.0003V20.667C9.18398 20.667 10.6673 22.167 10.6673 24.0003C10.6673 25.8337 9.18398 27.3337 7.33398 27.3337V34.0003C7.33398 35.8337 8.83398 37.3337 10.6673 37.3337H37.334C39.1673 37.3337 40.6673 35.8337 40.6673 34.0003V27.3337C38.834 27.3337 37.334 25.8337 37.334 24.0003C37.334 22.167 38.834 20.667 40.6673 20.667ZM37.334 18.2337C35.3507 19.3837 34.0007 21.5503 34.0007 24.0003C34.0007 26.4503 35.3507 28.617 37.334 29.767V34.0003H10.6673V29.767C12.6507 28.617 14.0007 26.4503 14.0007 24.0003C14.0007 21.5337 12.6673 19.3837 10.684 18.2337L10.6673 14.0003H37.334V18.2337ZM19.1173 30.667L24.0007 27.5337L28.884 30.667L27.4007 25.067L31.884 21.4003L26.1007 21.0503L24.0007 15.667L21.884 21.0337L16.1007 21.3837L20.584 25.0503L19.1173 30.667Z" fill="#FFC52F"/>
</svg>
